<svg width="300" height="300" viewBox="0 0 300 300" xmlns="http://www.w3.org/2000/svg">
  <defs>
    <linearGradient id="bg4" x1="0%" y1="0%" x2="100%" y2="100%">
      <stop offset="0%" style="stop-color:#7B68EE;stop-opacity:1" />
      <stop offset="100%" style="stop-color:#9370DB;stop-opacity:1" />
    </linearGradient>
  </defs>
  
  <!-- Background -->
  <rect width="300" height="300" fill="url(#bg4)"/>
  
  <!-- Face - mixed ethnicity skin tone -->
  <circle cx="150" cy="120" r="45" fill="#D4A76A" stroke="#C4986A" stroke-width="2"/>
  
  <!-- Hair - long brown hair -->
  <path d="M105 90 Q150 70 195 90 Q195 75 185 65 Q150 50 115 65 Q105 75 105 90" fill="#8B6F47"/>
  <path d="M105 90 Q100 130 105 170 L115 165 Q110 130 115 90" fill="#8B6F47"/>
  <path d="M195 90 Q200 130 195 170 L185 165 Q190 130 185 90" fill="#8B6F47"/>
  
  <!-- Eyes -->
  <circle cx="135" cy="115" r="3" fill="#4A3C28"/>
  <circle cx="165" cy="115" r="3" fill="#4A3C28"/>
  
  <!-- Nose -->
  <line x1="150" y1="125" x2="150" y2="135" stroke="#C4986A" stroke-width="1"/>
  
  <!-- Mouth -->
  <path d="M140 140 Q150 148 160 140" stroke="#C67A7D" stroke-width="2" fill="none"/>
  
  <!-- Body/Clothing -->
  <rect x="120" y="165" width="60" height="80" fill="#2F2920" rx="5"/>
  <rect x="125" y="170" width="50" height="70" fill="#7B68EE" rx="3"/>
  
  <!-- Academic elements -->
  <text x="150" y="280" text-anchor="middle" font-family="Georgia, serif" font-size="16" fill="#FEFCF7" font-weight="bold">Laila Tse</text>
</svg>