<svg width="300" height="300" viewBox="0 0 300 300" xmlns="http://www.w3.org/2000/svg">
  <defs>
    <linearGradient id="bg3" x1="0%" y1="0%" x2="100%" y2="100%">
      <stop offset="0%" style="stop-color:#D4AF37;stop-opacity:1" />
      <stop offset="100%" style="stop-color:#A0845C;stop-opacity:1" />
    </linearGradient>
  </defs>
  
  <!-- Background -->
  <rect width="300" height="300" fill="url(#bg3)"/>
  
  <!-- Face -->
  <circle cx="150" cy="120" r="45" fill="#F0C4A0" stroke="#E3B591" stroke-width="2"/>
  
  <!-- Hair - longer style -->
  <path d="M110 80 Q150 60 190 80 Q195 90 185 110 Q170 105 150 110 Q130 105 115 110 Q105 90 110 80" fill="#8B4513"/>
  
  <!-- Eyes -->
  <circle cx="135" cy="115" r="3" fill="#2C1B0E"/>
  <circle cx="165" cy="115" r="3" fill="#2C1B0E"/>
  
  <!-- Eyelashes/makeup -->
  <path d="M130 110 L125 108" stroke="#2C1B0E" stroke-width="1"/>
  <path d="M140 110 L145 108" stroke="#2C1B0E" stroke-width="1"/>
  <path d="M160 110 L155 108" stroke="#2C1B0E" stroke-width="1"/>
  <path d="M170 110 L175 108" stroke="#2C1B0E" stroke-width="1"/>
  
  <!-- Nose -->
  <line x1="150" y1="125" x2="150" y2="135" stroke="#E3B591" stroke-width="1"/>
  
  <!-- Mouth -->
  <path d="M140 140 Q150 150 160 140" stroke="#C85A5A" stroke-width="2" fill="none"/>
  
  <!-- Body/Clothing -->
  <rect x="120" y="165" width="60" height="80" fill="#2F2920" rx="5"/>
  <rect x="125" y="170" width="50" height="70" fill="#8B6914" rx="3"/>
  
  <!-- Necklace -->
  <circle cx="150" cy="175" r="3" fill="#D4AF37"/>
  <path d="M135 172 Q150 168 165 172" stroke="#D4AF37" stroke-width="2" fill="none"/>
  
  <!-- Academic elements -->
  <text x="150" y="280" text-anchor="middle" font-family="Georgia, serif" font-size="16" fill="#FEFCF7" font-weight="bold">Michelle Ko</text>
  <text x="150" y="295" text-anchor="middle" font-family="Georgia, serif" font-size="10" fill="#D4AF37">Secretary</text>
</svg>